<?xml version="1.0" encoding="utf-8"?>
<!-- Generator: Adobe Illustrator 22.1.0, SVG Export Plug-In . SVG Version: 6.00 Build 0)  -->
<svg version="1.1" id="Layer_1" xmlns="http://www.w3.org/2000/svg" xmlns:xlink="http://www.w3.org/1999/xlink" x="0px" y="0px"
	 viewBox="0 0 20 20" style="enable-background:new 0 0 20 20;" xml:space="preserve">
<style type="text/css">
	.st0{fill:#CCCCCC;}
</style>
<path class="st0" d="M18.5,16.6l-0.3,0.3c-0.8,0.7-1.7,1.1-2.6,1.1h0c-1,0-1.9-0.4-2.6-1.1c-0.7-0.7-1.1-1.6-1.1-2.6
	c0-1,0.3-1.9,1.1-2.6c0.7-0.7,1.6-1.1,2.6-1.1h0c0.9,0,1.8,0.3,2.6,1l0.3,0.3l1.5-1.3l-0.4-0.4c-1.2-1.1-2.5-1.6-4-1.6h0
	c-0.6,0-1.2,0.1-1.7,0.3C11.9,2,6.4,0.1,6.2,0L5.9,0.9c0,0,1.8,0.6,3.6,2.4C9,6.3,7.3,8.1,6.7,8.7C6.4,8.6,6,8.6,5.7,8.6h0
	c-1.6,0-2.9,0.6-4,1.7c-1.1,1.1-1.6,2.5-1.6,4c0,1.6,0.6,2.9,1.7,4c1.1,1.1,2.4,1.6,4,1.6h0c1.4,0,2.6-0.5,3.8-1.5
	c-0.4-0.6-0.7-1.2-0.9-1.8l-0.3,0.3C7.5,17.7,6.6,18,5.7,18h0c-1,0-1.9-0.4-2.6-1.1C2.3,16.2,2,15.4,2,14.3c0-1,0.3-1.9,1.1-2.6
	c0.7-0.7,1.6-1.1,2.6-1.1h0c0.9,0,1.8,0.3,2.6,1l0.3,0.3c0.2-0.7,0.5-1.3,0.9-1.8C9,9.6,8.4,9.3,7.8,9c0.8-0.8,2-2.4,2.6-4.8
	c1,1.2,2,2.9,2.6,5c-0.5,0.3-1,0.6-1.4,1.1c-1.1,1.1-1.6,2.5-1.6,4c0,1.6,0.6,2.9,1.7,4c1.1,1.1,2.4,1.6,4,1.6h0
	c1.5,0,2.8-0.6,4-1.7L20,18L18.5,16.6z"/>
</svg>
